<svg width="16" height="9" viewBox="0 0 16 9" fill="none" xmlns="http://www.w3.org/2000/svg">
<path d="M15.4823 0.370634C15.358 0.253144 15.2104 0.159933 15.0479 0.0963345C14.8854 0.0327363 14.7112 -4.75134e-08 14.5352 -5.46842e-08C14.3593 -6.1855e-08 14.1851 0.0327362 14.0226 0.0963345C13.86 0.159933 13.7124 0.253144 13.5881 0.370634L8.37578 5.28801L3.16343 0.370633C2.91225 0.133664 2.57157 0.0005361 2.21634 0.000536086C1.86111 0.000536071 1.52043 0.133664 1.26925 0.370633C1.01806 0.607602 0.876953 0.929001 0.876953 1.26413C0.876953 1.59925 1.01806 1.92065 1.26925 2.15762L7.43541 7.97483C7.55969 8.09231 7.70732 8.18553 7.86983 8.24912C8.03234 8.31272 8.20656 8.34546 8.3825 8.34546C8.55844 8.34546 8.73266 8.31272 8.89517 8.24912C9.05768 8.18553 9.20531 8.09231 9.32959 7.97483L15.4957 2.15762C16.0062 1.67602 16.0062 0.864906 15.4823 0.370634Z" fill="#D3A856"/>
</svg>
