<svg width="27" height="24" viewBox="0 0 27 24" fill="none" xmlns="http://www.w3.org/2000/svg">
<path d="M17.3221 12L25.2901 4.66379C26.4267 3.61729 26.4267 1.92061 25.2901 0.874108C24.1534 -0.172392 22.3107 -0.172392 21.174 0.874108L13.206 8.21033L5.23804 0.874108C4.10142 -0.172392 2.25862 -0.172392 1.122 0.874108C-0.0146245 1.92061 -0.0146245 3.61729 1.122 4.66379L9.09 12L1.122 19.3362C-0.0146245 20.3827 -0.0146245 22.0794 1.122 23.1259C1.69031 23.6491 2.43515 23.9108 3.17999 23.9108C3.92483 23.9108 4.66973 23.6492 5.23798 23.1259L13.206 15.7897L21.174 23.1259C21.7424 23.6491 22.4872 23.9108 23.232 23.9108C23.9769 23.9108 24.7217 23.6492 25.29 23.1259C26.4266 22.0794 26.4266 20.3827 25.29 19.3362L17.3221 12Z" fill="url(#paint0_linear)"/>
<defs>
<linearGradient id="paint0_linear" x1="0.54924" y1="23.9107" x2="26.1426" y2="23.9107" gradientUnits="userSpaceOnUse">
<stop stop-color="#E4A824"/>
<stop offset="0.508929" stop-color="#FBE456"/>
<stop offset="1" stop-color="#E4A824"/>
</linearGradient>
</defs>
</svg>
